<svg viewBox="0 0 24 25" xmlns="http://www.w3.org/2000/svg" class="bn-svg"><path fill-rule="evenodd" clip-rule="evenodd" d="M1.492 11.327c5.825-2.366 9.71-3.926 11.653-4.68 5.549-2.152 6.702-2.526 7.453-2.538.166-.003.535.035.775.216.202.153.257.36.284.505.027.145.06.475.033.733-.3 2.946-1.602 10.096-2.264 13.395-.28 1.397-.831 1.865-1.365 1.91-1.16.1-2.041-.715-3.165-1.401-1.759-1.075-2.753-1.745-4.46-2.793-1.972-1.213-.694-1.879.43-2.968.295-.285 5.408-4.62 5.507-5.014.012-.05.023-.233-.093-.33-.117-.096-.29-.063-.414-.037-.176.037-2.986 1.769-8.428 5.195-.798.51-1.52.759-2.167.746-.714-.015-2.086-.376-3.106-.686-1.252-.379-2.246-.58-2.16-1.223.045-.336.54-.68 1.487-1.03z" fill="white"></path></svg>